<?xml version="1.0" standalone="no"?>
<!DOCTYPE svg PUBLIC "-//W3C//DTD SVG 20010904//EN"
 "http://www.w3.org/TR/2001/REC-SVG-20010904/DTD/svg10.dtd">
<svg version="1.0" xmlns="http://www.w3.org/2000/svg"
 width="304.000000pt" height="236.000000pt" viewBox="0 0 304.000000 236.000000"
 preserveAspectRatio="xMidYMid meet">
<metadata>
Created by potrace 1.15, written by Peter Selinger 2001-2017
</metadata>
<g transform="translate(0.000000,236.000000) scale(0.100000,-0.100000)"
fill="#000000" stroke="none">
<path d="M1437 2309 c-38 -15 -68 -19 -136 -17 l-86 3 -62 -42 c-36 -24 -81
-44 -105 -48 -83 -13 -115 -27 -144 -63 -50 -61 -77 -83 -142 -113 -60 -27
-64 -31 -92 -92 -16 -35 -36 -69 -45 -77 -9 -7 -14 -19 -11 -27 3 -8 1 -11 -4
-8 -16 10 -69 -34 -89 -73 -10 -21 -21 -59 -25 -86 -7 -56 -40 -119 -70 -135
-12 -6 -91 -12 -188 -14 l-166 -2 96 -120 c52 -66 124 -157 158 -202 34 -45
65 -79 67 -76 3 3 3 -6 0 -19 -4 -12 -9 -25 -12 -28 -11 -9 -181 -230 -181
-235 0 -3 52 -5 115 -5 l115 0 29 -41 c18 -24 33 -60 37 -87 10 -75 31 -113
88 -164 36 -32 63 -68 85 -113 29 -63 35 -68 94 -95 45 -20 79 -46 122 -93 59
-63 61 -65 133 -77 56 -9 86 -21 135 -53 l62 -42 87 3 c67 2 97 -2 138 -18 64
-25 105 -25 163 0 37 17 63 20 135 18 l89 -3 62 42 c48 32 78 44 134 53 70 12
73 14 132 76 40 43 80 74 122 94 57 27 65 35 94 92 20 41 53 84 94 123 51 48
64 68 70 100 13 82 28 124 56 158 l29 36 110 -2 c61 -1 110 0 110 3 0 3 -28
39 -61 80 -127 157 -132 166 -116 198 8 16 56 82 107 146 58 74 89 121 83 127
-6 6 -38 -28 -87 -91 -72 -92 -96 -115 -96 -91 0 9 138 192 153 202 5 4 6 12
2 19 -5 8 -4 11 2 7 6 -4 16 0 23 8 11 13 -1 15 -99 15 -90 0 -111 3 -111 14
0 12 25 15 134 18 139 3 144 1 115 -38 -5 -6 -5 -15 -1 -19 4 -5 2 -5 -4 -2
-16 9 -40 -21 -27 -34 7 -7 26 10 61 53 l50 63 -173 3 -174 2 -29 36 c-29 35
-44 77 -57 159 -6 32 -19 51 -70 98 -46 42 -73 78 -94 123 -28 59 -34 66 -93
94 -43 20 -82 51 -123 94 -59 62 -62 64 -132 76 -45 7 -85 21 -105 35 -76 55
-89 59 -181 57 -70 -2 -97 2 -134 18 -56 25 -104 25 -166 -1z m354 -82 c111
-29 275 -108 371 -179 145 -107 301 -305 363 -460 49 -124 67 -215 72 -368 11
-318 -82 -562 -301 -788 -91 -94 -144 -136 -251 -197 -41 -23 -73 -44 -71 -46
3 -2 -5 -5 -17 -5 -12 -1 -53 -14 -90 -28 -165 -63 -434 -73 -622 -23 -91 24
-260 103 -344 160 -76 51 -235 217 -288 299 -27 43 -53 75 -58 70 -5 -4 -5 -2
-1 5 4 7 -4 34 -17 60 -70 137 -102 312 -94 506 8 205 58 361 171 536 56 87
190 229 272 287 116 83 281 156 414 183 30 6 64 13 75 15 11 3 88 3 170 1 118
-3 170 -9 246 -28z m-1383 -749 c-3 -9 -38 -14 -118 -16 -111 -3 -112 -3 -95
-22 10 -11 21 -18 25 -15 4 2 7 -2 7 -8 0 -7 32 -54 71 -105 68 -86 82 -112
65 -112 -5 0 -39 41 -78 91 -38 50 -87 112 -107 138 -21 25 -38 49 -38 53 0 5
61 8 136 8 104 0 135 -3 132 -12z"/>
<path d="M1368 2219 c-77 -10 -259 -66 -270 -83 -4 -6 -8 -8 -8 -4 0 9 -119
-54 -178 -94 -62 -43 -167 -143 -217 -208 -218 -284 -280 -640 -170 -987 27
-85 103 -227 168 -311 46 -60 162 -171 222 -212 56 -38 175 -100 175 -92 0 4
4 2 8 -4 9 -14 135 -58 217 -75 91 -20 323 -17 424 4 310 66 582 278 723 562
132 264 143 578 30 867 -105 271 -379 519 -664 602 -145 42 -309 54 -460 35z
m209 -160 c15 -5 31 -16 35 -22 13 -20 9 -55 -7 -71 -19 -18 -19 -21 2 -53
l18 -27 15 80 c13 70 18 79 39 82 38 6 42 -9 26 -93 -18 -93 -25 -103 -60 -87
-15 7 -30 10 -35 7 -19 -12 -59 8 -69 33 l-9 27 -1 -28 c-1 -25 -4 -28 -28
-25 l-28 3 2 78 c0 43 4 84 7 92 6 18 53 20 93 4z m-127 -24 c0 -20 -5 -25
-25 -25 -14 0 -25 -4 -25 -9 0 -6 12 -9 28 -8 23 2 27 -2 27 -23 0 -18 -6 -26
-23 -28 -19 -3 -23 -9 -20 -34 3 -27 -1 -32 -25 -39 -19 -5 -29 -4 -32 4 -4
13 -25 150 -25 166 0 11 28 18 83 20 33 1 37 -2 37 -24z m370 -21 c40 -16 47
-28 31 -52 -5 -9 -18 -11 -37 -7 l-29 6 28 -16 c29 -17 31 -22 18 -44 -6 -9
-18 -11 -36 -7 -17 4 -24 3 -20 -4 3 -5 12 -10 20 -10 21 0 27 -17 15 -39 -11
-21 -11 -21 -107 14 -11 4 3 58 42 163 6 16 26 15 75 -4z m-585 -14 c7 -23
-10 -50 -32 -50 -8 0 -11 -5 -7 -11 4 -8 9 -8 17 0 17 17 35 13 47 -9 9 -17 7
-22 -13 -31 -22 -10 -23 -14 -13 -40 11 -32 0 -49 -34 -49 -20 0 -84 150 -71
163 5 5 7 17 4 26 -4 12 -3 13 5 3 9 -14 57 -7 68 9 9 15 22 10 29 -11z m721
-51 c72 -49 82 -102 29 -155 -32 -32 -76 -31 -132 2 l-44 25 19 32 c11 18 32
53 47 80 15 26 29 47 32 47 2 0 25 -14 49 -31z m-861 -33 c33 -14 65 -59 65
-91 0 -27 -31 -72 -57 -84 -43 -20 -82 -13 -114 18 -50 51 -34 127 35 157 39
16 31 16 71 0z m585 -147 c168 -46 312 -165 387 -319 52 -107 67 -172 65 -281
-2 -108 -36 -216 -98 -316 -234 -377 -794 -377 -1028 0 -132 212 -130 455 4
659 85 129 198 213 350 257 91 27 224 27 320 0z m501 -5 c10 -9 21 -14 26 -11
18 11 11 -52 -8 -68 -10 -10 -20 -16 -22 -14 -1 2 -7 13 -13 24 -6 11 -20 21
-31 23 -44 7 -56 -60 -13 -71 27 -7 25 -21 -6 -37 -31 -17 -52 -6 -76 39 -21
41 -9 81 35 115 34 27 78 27 108 0z m-1301 -14 c12 -7 13 -13 4 -27 -10 -16
-4 -23 37 -52 53 -36 57 -45 33 -73 -16 -17 -19 -16 -66 18 -39 29 -51 34 -63
24 -11 -9 -19 -9 -34 2 -20 14 -20 15 16 66 37 53 47 59 73 42z m1390 -99 c15
-29 13 -37 -15 -49 -22 -10 -24 -15 -15 -32 9 -17 14 -18 31 -9 42 22 55 19
57 -14 1 -30 -3 -34 -68 -67 -38 -19 -68 -36 -66 -37 2 -2 34 8 71 22 76 29
90 28 97 -8 4 -23 -1 -26 -79 -53 -88 -30 -98 -28 -107 17 -2 15 -10 37 -18
49 -9 16 -10 24 -2 27 29 10 45 30 38 46 -3 9 -10 17 -16 17 -5 0 -7 -3 -5 -7
3 -5 -8 -9 -24 -10 -20 -2 -32 4 -40 18 -13 25 -9 29 56 64 28 15 54 31 60 36
15 15 34 10 45 -10z m-1443 -70 c15 -25 21 -28 55 -23 l38 5 -11 -31 c-6 -17
-20 -34 -31 -38 -14 -4 -17 -9 -9 -17 13 -13 -4 -47 -25 -47 -16 0 -154 67
-154 76 0 10 33 69 48 87 25 28 70 22 89 -12z m23 -185 c0 -16 -7 -27 -19 -31
-25 -8 -36 -42 -20 -61 7 -8 13 -28 13 -43 1 -34 -3 -33 -96 21 -83 49 -89 57
-79 94 6 25 13 30 52 35 24 3 68 7 97 7 49 2 52 1 52 -22z m1521 -35 c38 -38
41 -95 7 -105 -40 -10 -46 -7 -44 27 1 27 -3 32 -25 35 -36 4 -54 -20 -38 -49
9 -17 9 -24 0 -27 -6 -2 -11 -8 -11 -13 0 -5 32 -9 70 -9 56 0 72 -3 77 -16 9
-24 -11 -49 -38 -48 -22 1 -22 1 4 -20 19 -16 27 -31 27 -54 0 -18 -3 -32 -8
-32 -4 0 -24 14 -45 31 l-37 31 -40 -30 -40 -29 62 -18 c100 -27 99 -26 83
-86 -16 -61 -18 -63 -45 -54 -18 6 -21 12 -16 37 3 18 2 27 -4 23 -6 -3 -10
-12 -10 -20 0 -19 -16 -27 -39 -20 -16 5 -18 11 -11 35 5 18 5 30 -1 30 -5 0
-9 -9 -9 -20 0 -12 -9 -24 -22 -29 -20 -7 -15 -12 45 -41 75 -36 81 -42 72
-70 -6 -20 -12 -22 -90 -36 l-40 -7 38 -15 c37 -15 46 -33 27 -62 -8 -13 -23
-8 -94 29 -84 43 -85 44 -69 67 16 26 32 32 81 36 40 3 40 9 2 26 -33 15 -39
41 -15 65 8 8 12 17 9 20 -3 2 2 32 10 65 9 33 16 71 16 85 0 17 10 32 33 47
25 17 27 21 9 17 -14 -3 -25 1 -31 10 -12 22 -2 53 18 54 14 1 15 2 0 6 -9 2
-21 15 -28 29 -44 97 84 181 160 105z m-1550 -236 c4 -27 4 -53 0 -57 -3 -4
-43 -11 -89 -15 -98 -11 -105 -6 -100 64 2 40 7 49 24 51 16 2 23 -5 31 -30
l11 -33 1 33 c1 27 5 32 26 32 20 0 25 -5 25 -25 0 -14 4 -25 10 -25 5 0 7 7
4 15 -10 25 4 47 28 43 19 -2 24 -11 29 -53z m9 -84 c0 -5 3 -17 6 -25 5 -12
-2 -19 -25 -27 -19 -7 -31 -18 -31 -28 0 -26 9 -31 36 -19 27 12 38 6 48 -27
5 -19 -3 -24 -80 -49 -71 -23 -88 -26 -95 -15 -17 27 -9 50 20 60 22 8 28 15
24 30 -6 21 -8 21 -38 10 -25 -11 -45 4 -45 34 0 19 11 25 68 43 73 23 112 27
112 13z m78 -206 c11 -24 9 -27 -43 -56 -47 -26 -54 -34 -49 -54 4 -18 1 -25
-16 -30 -12 -4 -23 -5 -24 -3 -1 1 -17 27 -35 57 -30 50 -31 54 -14 67 23 17
28 17 43 -1 10 -12 18 -10 58 15 57 36 66 37 80 5z m136 -191 c5 -20 12 -25
26 -21 13 3 18 1 13 -6 -4 -6 0 -8 10 -4 25 9 21 -19 -4 -36 -14 -10 -20 -25
-19 -44 3 -44 2 -45 -30 -26 -25 14 -34 15 -50 5 -33 -20 -41 -15 -34 26 4 28
2 41 -10 51 -26 22 -19 39 14 35 25 -3 33 1 42 21 15 32 34 32 42 -1z m1001 0
c12 -19 23 -25 40 -21 21 3 24 0 22 -24 -1 -15 -6 -27 -12 -26 -5 1 -9 -15 -8
-35 3 -43 3 -42 -30 -27 -19 9 -31 7 -56 -5 l-31 -17 0 38 c0 27 -6 42 -20 51
-22 13 -27 40 -7 39 35 -1 47 5 53 28 8 32 27 32 49 -1z m-797 -124 c9 -15 23
-20 53 -20 l40 0 -17 -30 c-16 -26 -16 -32 -3 -57 7 -15 18 -31 24 -35 15 -12
-7 -10 -44 3 -28 10 -35 9 -55 -10 -30 -28 -34 -27 -38 11 -2 22 -10 36 -26
44 -35 17 -36 22 -4 38 20 10 33 26 37 46 8 35 15 38 33 10z m582 -10 c0 -23
7 -33 31 -45 33 -17 32 -21 -3 -39 -16 -8 -24 -22 -26 -44 -4 -38 -8 -39 -38
-11 -20 19 -27 20 -55 10 -44 -15 -53 -14 -35 5 22 21 31 63 17 77 -21 21 -12
37 22 37 21 0 41 8 52 20 25 28 35 25 35 -10z m-345 -40 c3 -5 19 -10 35 -10
16 0 32 5 35 10 13 22 26 8 24 -24 -2 -22 3 -42 14 -54 23 -25 22 -29 -12 -37
-15 -3 -34 -17 -41 -30 -17 -32 -28 -32 -40 0 -6 17 -20 27 -40 31 -35 7 -37
15 -11 38 15 14 17 24 11 51 -6 26 -5 35 5 35 8 0 17 -4 20 -10z"/>
<path d="M1417 1754 c-374 -68 -584 -463 -431 -811 31 -72 83 -145 96 -137 6
4 8 3 5 -3 -4 -6 8 -25 26 -43 124 -123 314 -185 489 -159 43 6 78 16 78 21 0
5 4 6 10 3 5 -3 49 13 96 36 110 54 195 137 252 247 42 80 72 197 72 274 -1
127 -72 305 -160 396 -29 31 -55 50 -62 46 -7 -4 -8 -3 -4 4 11 19 -173 120
-189 104 -3 -4 -9 -1 -13 5 -4 6 -42 16 -85 22 -91 13 -80 13 -180 -5z m209
-25 c32 -6 96 -28 141 -50 226 -108 353 -365 302 -611 -15 -73 -80 -203 -130
-261 -113 -131 -319 -206 -491 -180 -400 59 -606 477 -412 834 34 62 157 180
221 212 122 61 241 79 369 56z"/>
<path d="M1690 1576 c7 -20 5 -25 -11 -29 -10 -3 -17 -2 -14 3 3 4 -2 13 -10
20 -12 10 -15 10 -15 -2 0 -24 24 -47 54 -52 41 -7 42 -12 7 -30 -49 -26 -67
-52 -101 -147 -34 -96 -55 -119 -106 -119 -39 0 -46 9 -75 85 -29 78 -76 148
-95 141 -8 -3 -12 -2 -9 4 17 28 -105 41 -153 16 -57 -30 -76 -62 -80 -134 -3
-56 -1 -70 14 -82 16 -14 16 -13 6 7 -21 38 -13 113 12 113 7 0 10 -14 8 -39
-2 -21 1 -42 7 -45 7 -5 11 6 11 32 0 38 30 92 51 92 12 0 1 -48 -18 -76 -19
-29 -27 -113 -14 -144 8 -20 9 -13 4 33 -5 47 -3 57 10 57 12 0 17 -16 23 -66
5 -53 10 -68 25 -71 11 -3 19 -9 19 -14 0 -5 7 -9 15 -9 8 0 19 -16 25 -40 8
-30 16 -40 31 -40 30 0 119 -31 119 -41 0 -5 7 -9 16 -9 8 0 13 -4 9 -10 -3
-5 7 -16 23 -24 25 -13 30 -23 35 -68 8 -62 1 -98 -22 -117 -14 -12 -14 -13 3
-7 10 3 25 1 32 -5 7 -6 19 -7 25 -3 9 5 6 10 -9 15 -21 8 -22 13 -16 66 4 32
9 60 11 62 9 11 31 8 27 -2 -2 -7 0 -25 5 -42 7 -21 10 -24 10 -10 1 11 19 43
41 70 22 28 40 55 40 62 0 6 8 14 18 17 28 10 81 64 103 108 16 32 20 54 17
107 -3 36 -11 80 -18 98 -12 28 -12 34 3 51 13 15 15 25 7 53 -14 47 -13 49
16 49 21 0 24 3 16 13 -6 7 -9 27 -7 44 3 28 0 32 -38 48 -23 10 -47 17 -54
16 -6 -1 -14 3 -18 9 -13 20 -24 10 -15 -14z"/>
</g>
</svg>
