<?xml version="1.0" standalone="no"?>
<!DOCTYPE svg PUBLIC "-//W3C//DTD SVG 20010904//EN"
 "http://www.w3.org/TR/2001/REC-SVG-20010904/DTD/svg10.dtd">
<svg version="1.0" xmlns="http://www.w3.org/2000/svg"
 width="304.000000pt" height="236.000000pt" viewBox="0 0 304.000000 236.000000"
 preserveAspectRatio="xMidYMid meet">
<metadata>
Created by potrace 1.15, written by Peter Selinger 2001-2017
</metadata>
<g transform="translate(0.000000,236.000000) scale(0.100000,-0.100000)"
fill="#000000" stroke="none">
<path d="M1435 2309 c-32 -15 -59 -18 -131 -16 l-90 2 -62 -42 c-49 -32 -79
-44 -135 -53 -70 -12 -74 -14 -132 -76 -40 -43 -80 -74 -122 -94 -57 -27 -65
-35 -94 -92 -19 -40 -54 -86 -94 -124 -50 -49 -65 -70 -70 -100 -13 -79 -28
-123 -54 -153 l-26 -31 -177 -8 -176 -7 91 -115 c211 -265 243 -313 222 -328
-16 -11 -185 -227 -185 -236 0 -3 53 -7 117 -8 l117 -3 23 -34 c24 -35 38 -77
48 -146 6 -32 18 -51 67 -96 39 -36 74 -81 97 -125 34 -64 40 -71 102 -101 47
-22 80 -47 115 -87 49 -57 51 -58 167 -85 26 -6 73 -28 104 -49 56 -37 57 -37
145 -34 72 2 98 -1 135 -18 58 -26 109 -25 175 1 43 17 65 20 121 15 74 -7
112 4 169 48 33 24 79 40 152 51 31 5 52 20 110 79 47 49 82 76 103 80 49 11
82 43 109 105 17 39 44 75 88 116 52 48 66 68 71 100 13 75 25 112 48 146 l23
34 122 3 123 3 -61 77 c-155 197 -143 177 -127 209 9 16 80 112 160 213 l145
185 -175 5 -175 5 -28 33 c-27 33 -42 76 -55 157 -6 32 -19 51 -71 100 -43 41
-71 77 -88 115 -28 65 -36 73 -114 110 -40 19 -73 45 -106 84 -49 57 -51 58
-171 86 -27 6 -64 22 -82 36 -58 44 -96 55 -170 48 -55 -5 -78 -2 -123 15 -67
26 -122 26 -175 0z m310 -73 c428 -94 766 -442 840 -865 30 -168 14 -382 -38
-536 -95 -276 -314 -517 -582 -640 -237 -108 -539 -125 -777 -44 -92 31 -247
113 -320 168 -158 120 -312 332 -372 512 -85 256 -72 551 34 787 69 152 211
328 345 429 116 87 306 170 458 199 90 17 315 12 412 -10z"/>
<path d="M1368 2220 c-232 -37 -419 -131 -584 -295 -165 -165 -260 -344 -298
-564 -93 -542 237 -1056 769 -1198 89 -23 118 -26 265 -26 147 0 176 3 265 26
368 98 654 382 751 744 32 120 43 313 24 431 -33 210 -126 403 -265 550 -207
220 -444 328 -740 337 -71 2 -156 0 -187 -5z m235 -178 c22 -19 22 -56 0 -77
-15 -16 -15 -19 1 -47 21 -34 12 -49 -25 -41 -16 3 -30 15 -36 31 l-11 27 -1
-28 c-1 -25 -4 -28 -28 -25 l-28 3 3 85 c2 47 6 88 8 91 7 12 99 -3 117 -19z
m-153 -7 c0 -20 -5 -25 -25 -25 -14 0 -25 -5 -25 -11 0 -6 9 -9 20 -6 23 6 45
-16 36 -38 -3 -8 -15 -15 -26 -15 -18 0 -21 -5 -18 -32 3 -30 0 -33 -28 -36
-31 -3 -31 -2 -38 50 -3 29 -9 70 -12 90 -6 34 -5 37 22 41 16 2 44 5 62 6 28
1 32 -2 32 -24z m363 -21 c46 -16 55 -27 38 -52 -5 -9 -17 -11 -36 -6 -20 5
-26 4 -21 -5 4 -6 13 -11 21 -11 19 0 26 -15 19 -35 -5 -13 -14 -15 -35 -11
-36 7 -38 -1 -4 -14 27 -10 30 -17 16 -39 -14 -21 -111 4 -111 29 0 25 50 160
59 160 4 0 28 -7 54 -16z m-575 -27 c2 -10 -6 -21 -22 -28 -14 -7 -23 -16 -20
-20 3 -5 15 -4 26 2 18 10 24 8 35 -7 12 -16 11 -20 -3 -31 -9 -7 -21 -14 -26
-15 -6 -2 -4 -15 3 -31 11 -24 10 -30 -2 -38 -31 -19 -44 -8 -76 68 -35 84
-34 90 20 110 41 15 61 12 65 -10z m730 -46 c48 -36 61 -75 38 -120 -29 -56
-81 -66 -146 -28 -22 12 -40 26 -40 30 0 26 77 147 94 147 7 0 31 -13 54 -29z
m-880 -22 c42 -14 76 -69 67 -109 -9 -41 -58 -80 -102 -80 -47 0 -93 45 -93
92 0 51 26 80 96 108 1 0 15 -5 32 -11z m567 -144 c164 -42 288 -128 377 -264
189 -288 98 -674 -201 -856 -100 -60 -179 -80 -316 -79 -102 0 -131 4 -192 26
-246 88 -413 321 -413 577 0 227 128 438 330 542 122 64 291 85 415 54z m532
-17 c33 -38 36 -48 17 -69 -23 -25 -31 -24 -38 6 -5 18 -13 25 -29 25 -49 0
-65 -54 -21 -71 26 -9 26 -10 9 -29 -25 -27 -50 -25 -74 6 -49 63 -4 154 76
154 28 0 45 -6 60 -22z m-1307 -13 c9 -10 9 -19 2 -27 -8 -10 2 -22 39 -48 54
-39 57 -45 33 -72 -16 -17 -19 -16 -66 18 -40 30 -51 34 -63 24 -12 -10 -18
-10 -30 0 -21 17 -19 25 18 75 35 48 48 53 67 30z m1390 -94 c15 -29 13 -37
-15 -49 -21 -10 -24 -15 -15 -31 9 -17 14 -18 40 -8 25 10 33 9 40 -3 19 -30
8 -46 -60 -80 -38 -19 -68 -35 -66 -37 1 -2 36 9 76 23 58 20 75 23 81 12 16
-25 9 -46 -18 -56 -133 -50 -153 -51 -153 -9 0 13 -7 32 -15 43 -21 27 -18 39
10 52 26 12 33 36 14 48 -6 3 -22 0 -36 -7 -22 -12 -27 -11 -39 6 -8 10 -14
22 -14 26 0 8 139 88 152 89 4 0 12 -9 18 -19z m-1467 -50 c14 -6 28 -19 32
-31 6 -17 12 -20 41 -14 25 5 34 3 34 -8 0 -24 -30 -58 -45 -52 -20 8 -19 -6
0 -20 14 -10 14 -14 2 -31 -14 -19 -16 -18 -80 9 -100 42 -101 43 -76 91 20
38 45 65 60 65 4 0 19 -4 32 -9z m47 -201 c0 -11 -11 -27 -25 -36 -26 -17 -32
-43 -14 -61 16 -16 7 -58 -12 -57 -9 1 -48 22 -86 47 -62 40 -70 48 -66 71 9
43 28 50 156 54 41 2 47 -1 47 -18z m1511 -30 c37 -27 51 -87 24 -107 -11 -7
-27 -13 -37 -13 -14 0 -16 6 -12 28 7 34 -12 54 -43 46 -27 -7 -36 -30 -22
-56 12 -22 12 -23 -18 -32 -16 -5 -26 -1 -37 16 -20 29 -20 53 1 88 30 52 94
65 144 30z m47 -174 c5 -23 -23 -47 -46 -39 -10 3 -6 -6 11 -21 18 -17 27 -35
27 -56 0 -16 -3 -30 -6 -30 -3 0 -23 14 -45 30 l-38 31 -41 -27 c-22 -15 -37
-30 -33 -34 4 -3 28 -11 53 -17 25 -7 57 -16 72 -22 25 -9 26 -11 16 -53 -13
-52 -29 -71 -52 -62 -14 5 -17 14 -12 36 3 18 2 27 -4 23 -6 -3 -10 -12 -10
-20 0 -19 -15 -26 -35 -19 -12 5 -16 15 -13 35 5 35 -7 39 -16 5 -3 -14 -14
-26 -24 -28 -11 -3 9 -17 56 -41 39 -21 72 -41 72 -45 0 -24 -34 -52 -63 -53
-18 0 -40 -4 -50 -8 -15 -6 -13 -9 17 -24 38 -18 45 -37 21 -57 -11 -10 -29
-4 -90 30 -41 23 -75 45 -75 49 0 24 31 43 80 50 l55 7 -37 19 c-40 20 -48 44
-23 65 8 7 13 16 10 20 -4 6 9 66 22 100 3 8 6 30 7 47 2 31 26 60 51 64 6 0
-1 4 -15 8 -18 5 -26 15 -28 34 l-3 28 93 -3 c83 -3 93 -5 96 -22z m-1590 -77
l3 -56 -53 -6 c-102 -13 -127 -10 -134 17 -3 13 -4 38 -2 57 2 26 8 35 26 37
14 2 22 -2 23 -12 3 -29 4 -34 12 -42 4 -4 7 7 7 24 0 27 4 32 25 32 20 0 25
-5 25 -25 0 -14 4 -25 10 -25 5 0 7 7 4 15 -10 25 4 47 28 43 20 -3 23 -10 26
-59z m10 -91 c7 -30 7 -31 -27 -43 -24 -8 -27 -13 -20 -32 7 -20 12 -21 35
-13 30 12 41 6 46 -25 2 -17 -9 -24 -77 -47 -57 -19 -83 -24 -92 -16 -18 14
-16 48 2 53 8 3 21 7 29 9 9 3 12 13 9 25 -4 16 -12 20 -42 18 -32 -2 -36 1
-39 23 -3 24 3 28 65 47 89 28 104 28 111 1z m79 -195 c14 -21 12 -23 -41 -54
-47 -26 -56 -35 -50 -51 6 -20 -9 -38 -31 -38 -6 0 -24 25 -40 56 -30 54 -30
55 -10 70 18 13 21 13 32 -2 11 -15 16 -14 60 14 53 35 60 35 80 5z m137 -188
c5 -18 15 -27 36 -32 35 -6 38 -18 10 -35 -14 -9 -20 -24 -20 -51 l0 -38 -29
17 c-24 14 -35 15 -54 7 -31 -15 -37 -9 -30 31 3 22 0 36 -11 45 -24 20 -19
31 14 31 23 0 33 6 42 25 14 32 34 32 42 0z m996 0 c9 -18 22 -25 42 -25 31 0
36 -11 12 -31 -12 -10 -14 -23 -10 -52 6 -35 5 -39 -11 -32 -35 15 -61 17 -67
6 -15 -24 -36 -11 -36 22 0 21 -7 36 -20 45 -28 17 -25 29 10 35 21 5 31 14
36 32 8 32 27 32 44 0z m-739 -147 c21 3 29 -1 29 -12 0 -8 -5 -18 -11 -22
-11 -6 -9 -32 6 -67 7 -16 4 -18 -26 -12 -27 5 -39 2 -53 -14 -23 -26 -36 -19
-36 19 0 23 -5 31 -25 36 -32 8 -32 30 0 38 18 5 26 15 31 42 l6 35 25 -23
c16 -15 34 -22 54 -20z m529 7 c0 -17 9 -29 31 -40 33 -17 32 -21 -3 -39 -13
-6 -24 -20 -26 -31 -7 -46 -11 -49 -36 -26 -18 17 -30 20 -56 15 -30 -7 -33
-5 -25 12 11 24 11 64 1 87 -7 14 -3 17 26 17 22 0 42 7 53 20 21 23 35 18 35
-15z m-335 -41 c23 -15 27 -15 50 0 34 22 37 21 34 -18 -2 -22 3 -42 14 -54
23 -25 22 -29 -13 -36 -19 -3 -34 -15 -42 -31 -6 -14 -14 -25 -18 -25 -4 0
-12 11 -18 25 -8 16 -23 28 -42 31 -35 8 -37 15 -11 38 15 13 18 26 14 52 -6
38 -2 41 32 18z"/>
<path d="M1434 1761 c-195 -31 -352 -147 -441 -326 -42 -83 -58 -155 -57 -260
2 -382 357 -655 734 -563 110 27 249 118 313 205 129 176 161 387 85 574 -32
79 -102 183 -156 229 -56 48 -157 102 -230 124 -67 19 -181 27 -248 17z m263
-52 c126 -42 254 -148 311 -258 53 -101 67 -157 67 -271 0 -76 -5 -120 -19
-160 -88 -259 -321 -418 -581 -396 -244 21 -450 203 -500 441 -40 191 12 364
154 506 85 85 164 130 271 154 84 19 215 12 297 -16z"/>
<path d="M1734 1592 c4 -22 4 -23 -19 -8 -32 21 -33 20 -27 -9 5 -29 -4 -32
-30 -8 -12 10 -18 12 -18 4 0 -26 21 -50 50 -56 39 -9 38 -16 -7 -40 -37 -20
-56 -52 -98 -169 -23 -63 -47 -86 -89 -86 -41 0 -48 8 -77 85 -49 133 -103
180 -198 173 -62 -4 -98 -25 -125 -70 -20 -33 -22 -141 -2 -157 11 -9 12 -5 4
26 -8 28 -7 46 3 68 l13 30 4 -40 c5 -56 22 -70 22 -18 0 39 29 93 51 93 13 0
0 -48 -23 -85 -19 -32 -23 -104 -8 -140 6 -14 8 -4 7 32 -3 76 16 69 27 -9 8
-56 12 -68 28 -68 10 0 18 -4 18 -10 0 -5 7 -10 15 -10 8 0 17 -12 21 -27 10
-49 13 -53 36 -53 38 0 112 -33 138 -61 14 -14 32 -29 41 -32 19 -6 33 -114
18 -133 -5 -6 -6 -14 -2 -18 4 -3 -2 -13 -13 -22 -18 -15 -18 -15 0 -10 10 4
25 1 32 -5 7 -6 19 -7 25 -3 9 5 6 10 -10 15 -20 8 -21 13 -16 61 10 79 14 88
31 57 21 -41 30 -139 13 -139 -8 0 2 -8 21 -19 25 -13 46 -17 72 -12 l36 6
-45 22 c-31 15 -41 17 -31 6 10 -13 9 -15 -7 -12 -16 3 -22 16 -28 62 -5 37
-4 61 3 69 37 45 70 92 70 102 0 6 16 20 36 31 20 10 50 40 67 65 40 57 49
152 22 224 -17 44 -17 47 -1 65 11 12 15 28 12 40 -3 12 -9 31 -12 42 -5 19
-3 21 20 17 25 -5 35 5 17 17 -5 3 -7 21 -4 39 5 32 3 35 -30 47 -20 7 -40 22
-47 33 -10 20 -10 20 -6 -2z"/>
</g>
</svg>
